<?xml version="1.0" encoding="UTF-8"?>
<svg version="1.1" xmlns="http://www.w3.org/2000/svg" width="128" height="128">
<path d="M0 0 C42.24 0 84.48 0 128 0 C128 42.24 128 84.48 128 128 C85.76 128 43.52 128 0 128 C0 85.76 0 43.52 0 0 Z " fill="#666C73" transform="translate(0,0)"/>
<path d="M0 0 C3.14279748 1.25711899 5.56467141 2.72904933 8.1875 4.875 C8.9375 7.375 8.9375 7.375 8.1875 9.875 C5.22113549 12.42745318 3.24349941 13.78317396 -0.6875 14.125 C-1.38875 14.0425 -2.09 13.96 -2.8125 13.875 C-3.039375 14.555625 -3.26625 15.23625 -3.5 15.9375 C-5.16822357 19.67114324 -7.36979608 22.59663421 -9.8125 25.875 C-10.4725 25.545 -11.1325 25.215 -11.8125 24.875 C-11.1525 23.555 -10.4925 22.235 -9.8125 20.875 C-13.14754724 21.12684671 -16.4799235 21.40496514 -19.8125 21.6875 C-20.74707031 21.75775391 -21.68164062 21.82800781 -22.64453125 21.90039062 C-28.53545517 22.41533153 -33.42147596 23.39787437 -38.8125 25.875 C-39.1425 26.535 -39.4725 27.195 -39.8125 27.875 C-29.56887833 29.65903543 -19.79708359 30.12925093 -9.4375 30 C-8.0078189 29.98993182 -6.57813079 29.98081288 -5.1484375 29.97265625 C-1.70297521 29.9509886 1.7422146 29.91667943 5.1875 29.875 C4.6925 31.36 4.6925 31.36 4.1875 32.875 C-9.90099722 36.36595506 -27.63020305 36.59538668 -40.8125 29.875 C-42.3125 27.6875 -42.3125 27.6875 -42.8125 25.875 C-34.83673335 18.62430305 -24.64700462 18.76750962 -14.4375 19.125 C-13.25414063 19.19203125 -12.07078125 19.2590625 -10.8515625 19.328125 C-7.68296627 19.18545774 -7.68296627 19.18545774 -5.8984375 16.74609375 C-4.65759098 13.46543838 -4.60452528 11.17540941 -4.8125 7.6875 C-5 4.51953125 -5 4.51953125 -4.8125 1.875 C-1.8125 -0.125 -1.8125 -0.125 0 0 Z " fill="#65A5C7" transform="translate(74.8125,36.125)"/>
<path d="M0 0 C0.66 0 1.32 0 2 0 C2.53625 0.9075 3.0725 1.815 3.625 2.75 C7.11311664 8.1873583 12.81215441 9.87728024 18.875 11.25 C32.75837155 13.56389526 46.38221313 11.04308322 58 3 C59.32 3 60.64 3 62 3 C59.822493 8.24379237 56.02719531 9.7958217 51 12 C36.9397845 17.05774923 25.95426411 16.94118204 12 12 C6.15599442 9.1539453 2.25781084 6.32187034 0 0 Z " fill="#6FA6C5" transform="translate(30,92)"/>
<path d="M0 0 C3.14279748 1.25711899 5.56467141 2.72904933 8.1875 4.875 C8.9375 7.375 8.9375 7.375 8.1875 9.875 C5.22113549 12.42745318 3.24349941 13.78317396 -0.6875 14.125 C-1.38875 14.0425 -2.09 13.96 -2.8125 13.875 C-3.039375 14.555625 -3.26625 15.23625 -3.5 15.9375 C-5.16822357 19.67114324 -7.36979608 22.59663421 -9.8125 25.875 C-10.4725 25.545 -11.1325 25.215 -11.8125 24.875 C-10.82280027 21.9059008 -10.05616587 20.10389824 -7.75 17.9375 C-4.85980931 14.8608454 -4.7592738 11.91280309 -4.8671875 7.78125 C-4.89039062 7.0696875 -4.91359375 6.358125 -4.9375 5.625 C-4.89625 4.3875 -4.855 3.15 -4.8125 1.875 C-1.8125 -0.125 -1.8125 -0.125 0 0 Z " fill="#A8BBC8" transform="translate(74.8125,36.125)"/>
<path d="M0 0 C0.99 0.33 1.98 0.66 3 1 C4.02734375 3.94921875 4.02734375 3.94921875 4.9375 7.6875 C6.7573914 15.1482669 9.4642239 20.69232939 16 25 C18.63774603 26.14449688 21.2718278 27.07519586 24 28 C24 28.66 24 29.32 24 30 C16.14010176 29.01751272 10.46742011 25.26449091 5.5390625 19.2109375 C1.64174638 13.61225495 -0.57468908 7.80497471 -1 1 C-0.67 0.67 -0.34 0.34 0 0 Z " fill="#6EA6C5" transform="translate(32,68)"/>
<path d="M0 0 C2.93471881 2.23293823 4.61001488 3.84533816 5.796875 7.359375 C6.17929554 12.33084202 2.84479762 16.13081425 0 20 C-2.875 22.625 -2.875 22.625 -5 24 C-3.82891845 21.46265664 -2.62548917 19.52635395 -0.875 17.3125 C1.49973834 13.11712893 1.60755646 9.73097245 1 5 C-0.10528442 3.68031822 -0.10528442 3.68031822 -2.875 3.75 C-6.37870192 4.03029615 -6.80041367 4.48618705 -9 7 C-9.99 7 -10.98 7 -12 7 C-11.64393309 4.41851492 -11.16671807 3.17954253 -9.375 1.25 C-5.98832458 -0.53246075 -3.77503705 -0.52982976 0 0 Z " fill="#6FA4C1" transform="translate(94,52)"/>
<path d="M0 0 C-1.42752393 3.59950927 -2.97708343 4.89823164 -6.375 6.6875 C-7.14585938 7.10386719 -7.91671875 7.52023438 -8.7109375 7.94921875 C-13.22210082 10.02004287 -17.04238026 10.09533884 -22 10 C-18.39252376 7.06057491 -14.76913001 5.64724268 -10.4375 4.0625 C-7.94693636 3.09939599 -7.94693636 3.09939599 -5.9375 1.375 C-4 0 -4 0 0 0 Z " fill="#58A7D1" transform="translate(92,95)"/>
<path d="M0 0 C0.99 0 1.98 0 3 0 C3 1.32 3 2.64 3 4 C4.65 4 6.3 4 8 4 C8 5.32 8 6.64 8 8 C3.56923077 10.09230769 3.56923077 10.09230769 0.6875 9.625 C0.130625 9.41875 -0.42625 9.2125 -1 9 C-1.625 5.625 -1.625 5.625 -2 2 C-1.34 1.34 -0.68 0.68 0 0 Z " fill="#F2F6F8" transform="translate(73,38)"/>
<path d="M0 0 C0 0.66 0 1.32 0 2 C-0.60996826 2.05534912 -1.21993652 2.11069824 -1.84838867 2.16772461 C-4.62835273 2.42155316 -7.40792124 2.67948775 -10.1875 2.9375 C-11.62706055 3.06801758 -11.62706055 3.06801758 -13.09570312 3.20117188 C-14.02705078 3.28818359 -14.95839844 3.37519531 -15.91796875 3.46484375 C-16.77156982 3.543396 -17.6251709 3.62194824 -18.50463867 3.70288086 C-21.05191013 3.95513479 -21.05191013 3.95513479 -23.69262695 4.65844727 C-24.83477661 4.82751587 -24.83477661 4.82751587 -26 5 C-26.66 4.34 -27.32 3.68 -28 3 C-18.70024411 0.0319928 -9.71762555 -0.14798415 0 0 Z " fill="#7DA6BD" transform="translate(65,55)"/>
<path d="M0 0 C0.8353125 0.37125 0.8353125 0.37125 1.6875 0.75 C-1.2825 3.225 -1.2825 3.225 -4.3125 5.75 C-4.19908466 8.15877257 -4.19908466 8.15877257 -3.3125 10.75 C-0.85134453 12.59434349 -0.85134453 12.59434349 1.6875 13.75 C0.6975 14.245 0.6975 14.245 -0.3125 14.75 C-6.1875 10.875 -6.1875 10.875 -7.3125 9.75 C-7.6875 6.9375 -7.6875 6.9375 -7.3125 3.75 C-3.50153592 -0.37854442 -3.50153592 -0.37854442 0 0 Z " fill="#FD2929" transform="translate(56.3125,18.25)"/>
<path d="M0 0 C0.66 0.66 1.32 1.32 2 2 C-5.18188138 4.4980457 -12.58401239 4.9775967 -20 3 C-20 2.67 -20 2.34 -20 2 C-14.06 1.505 -14.06 1.505 -8 1 C-8 0.67 -8 0.34 -8 0 C-4.71303767 -0.79953138 -3.28976808 -1.09658936 0 0 Z " fill="#7BA0B5" transform="translate(72,104)"/>
<path d="M0 0 C0.99 0.33 1.98 0.66 3 1 C3.33 4.96 3.66 8.92 4 13 C0.33807027 10.55871351 -0.01039159 9.20583575 -1 5 C-0.625 2.125 -0.625 2.125 0 0 Z " fill="#5EA4CA" transform="translate(32,68)"/>
<path d="M0 0 C5.875 0.875 5.875 0.875 7 2 C7.3125 4.375 7.3125 4.375 7 7 C5.1875 8.8125 5.1875 8.8125 3 10 C2.01 10 1.02 10 0 10 C0 9.34 0 8.68 0 8 C1.65 7.67 3.3 7.34 5 7 C5 5.68 5 4.36 5 3 C3.35 3 1.7 3 0 3 C0 2.01 0 1.02 0 0 Z " fill="#B2C5D3" transform="translate(76,39)"/>
<path d="M0 0 C2.97 0 5.94 0 9 0 C8.67 0.99 8.34 1.98 8 3 C4.04 3 0.08 3 -4 3 C-2.68 2.67 -1.36 2.34 0 2 C0 1.34 0 0.68 0 0 Z " fill="#55A4CF" transform="translate(71,66)"/>
<path d="M0 0 C2.01822917 0.06510417 4.03645833 0.13020833 6.0546875 0.1953125 C5.4771875 0.4428125 4.8996875 0.6903125 4.3046875 0.9453125 C1.92201863 2.1271737 1.92201863 2.1271737 -0.0078125 4.3203125 C-1.9453125 6.1953125 -1.9453125 6.1953125 -4.9453125 6.1953125 C-3.78219775 0.37973873 -3.78219775 0.37973873 0 0 Z " fill="#54A5D1" transform="translate(86.9453125,52.8046875)"/>
</svg>
